<svg width="40" height="16" viewBox="0 0 40 16" fill="none" xmlns="http://www.w3.org/2000/svg">
<path d="M4.8113 15.3414C0.996609 13.2874 -0.426891 8.53272 1.63828 4.74145C3.70223 0.952006 8.48644 -0.463133 12.303 1.58721C18.117 4.71662 21.2565 13.4472 21.3869 13.8172L19.0877 14.6208C19.0585 14.5384 16.1256 6.39941 11.1433 3.71749C8.50777 2.30175 5.20617 3.27908 3.78206 5.89439C2.35674 8.51213 3.33905 11.7941 5.97337 13.2117L4.8113 15.3414Z" fill="white"/>
<path d="M35.2313 15.3413L34.071 13.2111C35.3477 12.5238 36.2782 11.3848 36.6926 10.0035C37.1063 8.62171 36.9534 7.16237 36.2617 5.89498C35.5719 4.62638 34.4263 3.70233 33.0363 3.29117C31.6457 2.88001 30.1783 3.0314 28.9023 3.71747C23.9201 6.39878 20.9871 14.5378 20.9579 14.6202L18.6587 13.8166C18.7891 13.4466 21.928 4.716 27.7421 1.58719C29.5897 0.592902 31.7182 0.373698 33.7316 0.969546C35.7468 1.56479 37.4061 2.90484 38.4061 4.74143C39.4073 6.57742 39.6285 8.69135 39.0289 10.6939C38.4287 12.6958 37.0801 14.3458 35.2313 15.3413Z" fill="white"/>
</svg>
